<?xml version="1.0" encoding="utf-8"?>
<svg version="1.1" x="0px" y="0px" viewBox="7 47 30 30" enable-background="new 0 0 100 100" xmlns="http://www.w3.org/2000/svg" xmlns:bx="https://boxy-svg.com">
  <g style="" transform="matrix(0.430074, 0, 0, 0.445209, 0.060159, 39.065819)">
    <path clip-path="url(#a)" d="M79.936,38.92c-2.313,0-4.194-1.882-4.194-4.195s1.881-4.194,4.194-4.194   c2.312,0,4.194,1.881,4.194,4.194S82.248,38.92,79.936,38.92 M79.936,32.531c-1.21,0-2.194,0.984-2.194,2.194   s0.984,2.195,2.194,2.195c1.209,0,2.194-0.985,2.194-2.195S81.145,32.531,79.936,32.531" style="fill: #333;"/>
    <path clip-path="url(#a)" d="M33.742,74.55c-1.856,0-3.366-1.509-3.366-3.364c0-1.856,1.51-3.366,3.366-3.366   s3.366,1.51,3.366,3.366C37.107,73.041,35.598,74.55,33.742,74.55 M33.742,69.819c-0.753,0-1.366,0.613-1.366,1.366   s0.613,1.364,1.366,1.364s1.366-0.611,1.366-1.364S34.495,69.819,33.742,69.819" style="fill: #333;"/>
    <path clip-path="url(#a)" d="M83.401,45.137c-0.945-5.283-13.271-5.547-18.971-5.38c-3.255-4.685-8.667-7.763-14.79-7.763   c-8.403,0-15.459,5.793-17.436,13.59c-5.357,1.834-16.54,6.321-15.606,11.529c0.642,3.577,6.603,4.812,11.491,5.218   c1.603,0.134,3.321,0.199,5.132,0.199c1.107,0,2.256-0.031,3.426-0.08c3.384,3.528,8.101,5.556,12.993,5.556   c7.183,0,13.628-4.233,16.497-10.801c3.06-0.979,5.872-2.046,8.303-3.184C78.883,51.944,84.044,48.716,83.401,45.137    M67.614,49.371c-0.062-1.78-0.377-3.495-0.922-5.109C70,44.725,71.07,45.604,71.16,46.1   C71.251,46.605,70.539,47.798,67.614,49.371 M49.641,33.994c8.826,0,16.006,7.18,16.006,16.006c0,0.11-0.006,0.219-0.008,0.329   c-3.896,1.732-9.14,3.246-14.837,4.267c-5.846,1.048-11.434,1.452-15.734,1.135c-0.13-0.009-0.247-0.021-0.372-0.031   c-0.694-1.818-1.061-3.73-1.061-5.699C33.635,41.174,40.814,33.994,49.641,33.994 M31.673,50.785   c0.068,1.584,0.327,3.136,0.801,4.634c-2.706-0.479-3.63-1.254-3.713-1.719C28.682,53.258,29.257,52.199,31.673,50.785    M49.641,66.006c-3.741,0-7.364-1.341-10.221-3.71c3.902-0.277,8.06-0.798,12.304-1.559c4.129-0.74,8.097-1.668,11.77-2.728   C60.656,62.922,55.419,66.006,49.641,66.006 M73.593,52.21c-5.754,2.692-13.646,5.021-22.222,6.559   c-8.576,1.537-16.783,2.096-23.116,1.569c-6.77-0.561-9.443-2.216-9.687-3.578c-0.348-1.94,3.67-5.491,13.207-8.902   c-0.025,0.21-0.046,0.42-0.064,0.632c-3.58,1.863-5.247,3.734-4.919,5.564c0.371,2.068,3.106,3.303,8.129,3.673   c0.999,0.073,2.064,0.109,3.181,0.109c3.876,0,8.392-0.436,13.053-1.272c6.007-1.075,11.556-2.691,15.627-4.55   c4.582-2.091,6.718-4.199,6.348-6.267c-0.35-1.947-2.818-3.151-7.308-3.594c-0.067-0.139-0.13-0.281-0.2-0.417   c10.352-0.16,15.46,1.784,15.812,3.753C81.677,46.852,79.746,49.332,73.593,52.21" style="fill: #333;"/>
    <path clip-path="url(#a)" d="M66.701,29.094c-0.658,0-1.191,0.534-1.191,1.192c0,0.658,0.533,1.192,1.191,1.192   s1.192-0.534,1.192-1.192C67.894,29.627,67.359,29.094,66.701,29.094" style="fill: #333;"/>
  </g>
</svg>
