<?xml version="1.0" encoding="utf-8"?>
<svg version="1.1" x="0px" y="0px" viewBox="1.898 36.315 127.113 41.398" enable-background="new 0 0 100 100" xmlns="http://www.w3.org/2000/svg" xmlns:bx="https://boxy-svg.com">
  <path d="M 69.641 57.145 C 69.589 56.868 69.52 56.573 69.45 56.295 C 69.363 55.966 69.242 55.654 69.103 55.341 C 69.086 55.307 69.069 55.255 69.051 55.22 C 67.837 52.566 65.183 50.675 62.112 50.623 C 59.458 50.571 57.099 51.872 55.659 53.867 C 55.347 54.283 55.087 54.752 54.861 55.237 C 54.844 55.272 54.826 55.307 54.809 55.359 C 54.67 55.671 54.566 55.983 54.462 56.313 C 54.375 56.59 54.323 56.868 54.271 57.163 C 54.219 57.423 54.185 57.701 54.167 57.978 C 54.15 58.204 54.15 58.412 54.15 58.637 C 54.15 59.002 54.185 59.366 54.254 59.713 C 54.306 60.042 54.375 60.355 54.462 60.667 C 55.399 63.876 58.331 66.27 61.817 66.34 C 64.471 66.392 66.831 65.091 68.271 63.096 L 64.246 61.621 C 63.674 62.159 62.928 62.471 62.147 62.506 C 60.794 62.575 59.649 61.899 59.042 60.65 C 58.903 60.355 58.782 60.042 58.712 59.696 L 58.972 59.696 L 65.304 59.696 L 69.693 59.696 C 69.728 59.47 69.762 59.227 69.78 58.984 C 69.797 58.759 69.797 58.551 69.797 58.325 C 69.745 57.926 69.71 57.527 69.641 57.145 Z M 58.66 57.145 C 58.747 56.851 58.851 56.556 58.99 56.295 C 59.181 55.931 59.406 55.619 59.684 55.341 L 59.701 55.341 L 59.684 55.341 C 59.718 55.307 59.77 55.272 59.805 55.237 C 60.36 54.752 61.037 54.439 61.765 54.405 C 62.667 54.353 63.465 54.665 64.09 55.237 C 64.125 55.272 64.177 55.307 64.211 55.359 C 64.471 55.619 64.697 55.948 64.87 56.313 C 64.992 56.573 65.096 56.851 65.183 57.163 L 64.645 57.163 L 58.66 57.163 L 58.66 57.145 Z" fill="white"/>
  <path d="M 19.653 44.658 C 19.653 41.692 17.849 39.142 15.281 38.049 C 14.414 37.685 13.477 37.476 12.488 37.476 L 4.04 37.476 L 4.023 37.476 L 4.04 57.461 L 8.394 57.461 L 8.394 51.823 L 11.621 51.823 L 14.379 57.461 L 19.132 57.461 L 15.871 50.973 C 18.126 49.758 19.653 47.382 19.653 44.658 Z M 15.299 44.658 C 15.299 46.219 14.032 47.486 12.471 47.486 L 8.394 47.486 L 8.394 41.831 L 12.471 41.831 C 14.032 41.831 15.299 43.097 15.299 44.658 Z" fill="white"/>
  <path d="M 116.496 60.147 C 116.011 61.604 114.814 62.436 113.478 62.506 C 111.951 62.575 110.702 61.708 110.147 60.129 C 110.026 59.782 109.939 59.401 109.904 58.984 C 109.887 58.759 109.87 58.533 109.87 58.29 C 109.87 58.186 109.87 58.065 109.887 57.961 C 109.922 57.544 109.991 57.163 110.13 56.799 C 110.633 55.393 111.813 54.457 113.131 54.387 C 114.658 54.318 115.907 55.22 116.444 56.816 L 120.729 56.053 C 119.723 52.965 116.843 50.675 113.461 50.623 C 109.922 50.553 106.921 52.878 105.88 56.053 C 105.654 56.729 105.533 57.458 105.498 58.204 C 105.498 58.342 105.498 58.481 105.498 58.62 C 105.498 58.655 105.498 58.707 105.498 58.741 C 105.516 59.487 105.654 60.199 105.88 60.892 C 106.886 63.98 109.766 66.27 113.148 66.322 C 116.687 66.392 119.688 64.067 120.729 60.892 L 116.496 60.147 Z" fill="white"/>
  <path d="M 127.217 51.091 L 122.863 51.091 L 122.863 65.993 L 127.217 65.993 L 127.217 51.091 Z" fill="white"/>
  <path d="M 126.905 48.177 L 123.244 48.177 C 123.054 48.177 122.88 48.021 122.88 47.813 L 122.88 44.17 C 122.88 43.979 123.036 43.805 123.244 43.805 L 126.905 43.805 C 127.096 43.805 127.269 43.962 127.269 44.17 L 127.269 47.83 C 127.269 48.021 127.096 48.177 126.905 48.177 Z" fill="white"/>
  <path d="M 102.757 56.504 C 101.422 54.804 98.108 53.624 96.495 53.034 C 95.055 52.514 94.534 52.098 94.552 51.386 C 94.604 50.033 95.922 49.738 96.807 49.738 C 98.767 49.738 99.062 51.803 99.062 51.803 L 102.913 50.848 C 102.913 50.848 102.167 45.974 96.165 45.974 C 94.222 45.974 92.106 47.119 90.995 48.576 C 90.007 49.877 89.885 51.473 90.527 53.069 C 91.377 55.203 93.129 55.845 94.899 56.486 C 96.217 56.972 97.987 57.458 99.097 58.568 C 99.635 59.106 99.739 60.025 99.357 60.806 C 98.958 61.656 97.831 62.246 96.737 62.246 C 94.344 62.246 93.372 60.095 93.337 60.008 L 93.216 59.713 L 88.879 60.58 L 88.983 60.945 C 89.001 60.997 89.382 62.298 90.544 63.616 C 91.62 64.83 93.58 66.288 96.859 66.288 C 99.652 66.288 101.873 65.091 103.07 62.922 C 104.197 60.91 104.249 58.395 102.757 56.504 Z" fill="white"/>
  <path d="M 45.233 50.64 C 43.655 50.606 42.024 51.057 41.174 51.855 L 41.174 51.126 L 36.82 51.126 L 36.82 72.966 L 41.174 72.966 L 41.174 65.16 C 41.937 65.889 43.481 66.322 44.938 66.357 C 49.362 66.444 52.485 62.783 52.415 58.36 C 52.328 54.179 49.397 50.727 45.233 50.64 Z M 44.782 62.541 C 42.753 62.645 41.191 61.066 41.174 58.377 L 41.174 58.273 C 41.191 56.087 42.683 54.491 44.418 54.405 C 46.448 54.301 48.026 55.983 48.026 58.672 C 48.026 61.049 46.517 62.436 44.782 62.541 Z" fill="white"/>
  <g style="" transform="matrix(0.430074, 0, 0, 0.445209, 0.060159, 39.065819)">
    <defs>
      <rect id="b" width="100" height="100"/>
    </defs>
    <clipPath id="a">
      <rect width="100" height="100" transform="matrix(1, 0, 0, 1, 0, 0)" overflow="visible"/>
    </clipPath>
    <path clip-path="url(#a)" d="M79.936,38.92c-2.313,0-4.194-1.882-4.194-4.195s1.881-4.194,4.194-4.194   c2.312,0,4.194,1.881,4.194,4.194S82.248,38.92,79.936,38.92 M79.936,32.531c-1.21,0-2.194,0.984-2.194,2.194   s0.984,2.195,2.194,2.195c1.209,0,2.194-0.985,2.194-2.195S81.145,32.531,79.936,32.531" style="fill: rgb(255, 255, 255);"/>
    <path clip-path="url(#a)" d="M33.742,74.55c-1.856,0-3.366-1.509-3.366-3.364c0-1.856,1.51-3.366,3.366-3.366   s3.366,1.51,3.366,3.366C37.107,73.041,35.598,74.55,33.742,74.55 M33.742,69.819c-0.753,0-1.366,0.613-1.366,1.366   s0.613,1.364,1.366,1.364s1.366-0.611,1.366-1.364S34.495,69.819,33.742,69.819" style="fill: rgb(255, 255, 255);"/>
    <path clip-path="url(#a)" d="M83.401,45.137c-0.945-5.283-13.271-5.547-18.971-5.38c-3.255-4.685-8.667-7.763-14.79-7.763   c-8.403,0-15.459,5.793-17.436,13.59c-5.357,1.834-16.54,6.321-15.606,11.529c0.642,3.577,6.603,4.812,11.491,5.218   c1.603,0.134,3.321,0.199,5.132,0.199c1.107,0,2.256-0.031,3.426-0.08c3.384,3.528,8.101,5.556,12.993,5.556   c7.183,0,13.628-4.233,16.497-10.801c3.06-0.979,5.872-2.046,8.303-3.184C78.883,51.944,84.044,48.716,83.401,45.137    M67.614,49.371c-0.062-1.78-0.377-3.495-0.922-5.109C70,44.725,71.07,45.604,71.16,46.1   C71.251,46.605,70.539,47.798,67.614,49.371 M49.641,33.994c8.826,0,16.006,7.18,16.006,16.006c0,0.11-0.006,0.219-0.008,0.329   c-3.896,1.732-9.14,3.246-14.837,4.267c-5.846,1.048-11.434,1.452-15.734,1.135c-0.13-0.009-0.247-0.021-0.372-0.031   c-0.694-1.818-1.061-3.73-1.061-5.699C33.635,41.174,40.814,33.994,49.641,33.994 M31.673,50.785   c0.068,1.584,0.327,3.136,0.801,4.634c-2.706-0.479-3.63-1.254-3.713-1.719C28.682,53.258,29.257,52.199,31.673,50.785    M49.641,66.006c-3.741,0-7.364-1.341-10.221-3.71c3.902-0.277,8.06-0.798,12.304-1.559c4.129-0.74,8.097-1.668,11.77-2.728   C60.656,62.922,55.419,66.006,49.641,66.006 M73.593,52.21c-5.754,2.692-13.646,5.021-22.222,6.559   c-8.576,1.537-16.783,2.096-23.116,1.569c-6.77-0.561-9.443-2.216-9.687-3.578c-0.348-1.94,3.67-5.491,13.207-8.902   c-0.025,0.21-0.046,0.42-0.064,0.632c-3.58,1.863-5.247,3.734-4.919,5.564c0.371,2.068,3.106,3.303,8.129,3.673   c0.999,0.073,2.064,0.109,3.181,0.109c3.876,0,8.392-0.436,13.053-1.272c6.007-1.075,11.556-2.691,15.627-4.55   c4.582-2.091,6.718-4.199,6.348-6.267c-0.35-1.947-2.818-3.151-7.308-3.594c-0.067-0.139-0.13-0.281-0.2-0.417   c10.352-0.16,15.46,1.784,15.812,3.753C81.677,46.852,79.746,49.332,73.593,52.21" style="fill: rgb(255, 255, 255);"/>
    <path clip-path="url(#a)" d="M66.701,29.094c-0.658,0-1.191,0.534-1.191,1.192c0,0.658,0.533,1.192,1.191,1.192   s1.192-0.534,1.192-1.192C67.894,29.627,67.359,29.094,66.701,29.094" style="fill: rgb(255, 255, 255);"/>
  </g>
  <path d="M 79.754 50.692 C 77.152 50.692 75.938 52.41 75.938 52.41 L 75.938 51.091 L 71.879 51.091 L 71.879 65.993 L 75.938 65.993 C 75.938 65.993 75.938 61.274 75.938 58.984 C 75.938 56.538 77.066 54.596 79.061 54.596 C 81.055 54.596 82.131 56.33 82.131 58.984 L 82.131 65.993 L 86.242 65.993 C 86.242 65.993 86.242 59.297 86.242 57.683 C 86.242 56.087 85.861 50.692 79.754 50.692 Z" fill="white"/>
  <text style="fill: rgb(255, 255, 255); font-family: Arial, Helvetica, sans-serif; font-size: 12px; font-style: italic; white-space: pre;" x="64.571" y="77.06">R-universe</text>
</svg>